<svg width="80" height="80" viewBox="0 0 80 80" fill="none" xmlns="http://www.w3.org/2000/svg">
<rect width="80" height="80" fill="#F5F5F5"/>
<g id="01_Home page" clip-path="url(#clip0_0_1)">
<rect width="1440" height="7230" transform="translate(-160 -1121)" fill="white"/>
<g id="Our Services">
<g id="Services">
<g id="UX Design">
<g id="Rectangle 192" filter="url(#filter0_d_0_1)">
<rect x="-25" y="-30" width="370" height="300" rx="10" fill="white"/>
</g>
<g id="Icons/ux-interface">
<g id="Icons/ux-interface_2" clip-path="url(#clip1_0_1)">
<g id="Group">
<g id="Group_2">
<g id="Group_3">
<g id="Group_4">
<g id="Group_5">
<path id="Vector" d="M50.6771 68.3489V61.9321H29.3225V68.3489C29.4111 73.6909 26.374 78.8282 26.374 78.8282H53.6255C53.6255 78.8282 50.5885 73.691 50.6771 68.3489Z" fill="#ACACAC"/>
</g>
<g id="Group_6">
<path id="Vector_2" d="M29.3213 63.1978H50.6765V66.3714H29.3213V63.1978Z" fill="#9C9C9C"/>
</g>
<g id="Group_7">
<path id="Vector_3" d="M77.4549 63.1985H2.54376C1.48027 63.1985 0.618164 62.3364 0.618164 61.2729V15.2195C0.618164 14.1561 1.48027 13.2939 2.54376 13.2939H77.4549C78.5184 13.2939 79.3805 14.1561 79.3805 15.2195V61.273C79.3805 62.3364 78.5184 63.1985 77.4549 63.1985Z" fill="#ACACAC"/>
</g>
<g id="Group_8">
<path id="Vector_4" d="M79.3797 15.2198V61.2735C79.3797 62.3367 78.518 63.1983 77.4533 63.1983H74.2812C75.3444 63.1983 76.2061 62.3367 76.2061 61.2735V15.2198C76.2061 14.1567 75.3444 13.2935 74.2812 13.2935H77.4533C78.518 13.2935 79.3797 14.1567 79.3797 15.2198Z" fill="#9C9C9C"/>
</g>
<g id="Group_9">
<path id="Vector_5" d="M6.74805 54.0042V20.7242C6.74805 19.7482 7.50157 18.957 8.43117 18.957H71.5671C72.4967 18.957 73.2503 19.7482 73.2503 20.7242V54.0042H6.74805Z" fill="#C4E2FF"/>
</g>
<g id="Group_10">
<path id="Vector_6" d="M73.2517 20.7242V54.004H70.0781V20.7242C70.0781 19.7483 69.3244 18.9565 68.3945 18.9565H71.5681C72.4979 18.9565 73.2517 19.7483 73.2517 20.7242Z" fill="#A5D5F9"/>
</g>
</g>
<g id="Group_11">
<path id="Vector_7" d="M58.1117 79.9998H21.8886C21.2414 79.9998 20.7168 79.4751 20.7168 78.828C20.7168 78.1809 21.2414 77.6562 21.8886 77.6562H58.1117C58.7589 77.6562 59.2835 78.1809 59.2835 78.828C59.2835 79.4751 58.7589 79.9998 58.1117 79.9998Z" fill="#5A5A5A"/>
</g>
</g>
<g id="Group_12">
<g id="Group_13">
<path id="Vector_8" d="M65.997 54.0048H14.001V1.29367C14.001 0.579672 14.5798 0.000976562 15.2937 0.000976562H64.7042C65.4182 0.000976562 65.9969 0.579829 65.9969 1.29367V54.0048H65.997Z" fill="#EAF6FF"/>
</g>
<g id="Group_14">
<path id="Vector_9" d="M65.9972 1.29332V54.0051H62.8236V1.29332C62.8236 0.579321 62.2444 0 61.5303 0H64.7039C65.418 0 65.9972 0.579164 65.9972 1.29332Z" fill="#D8ECFE"/>
</g>
<g id="Group_15">
<g id="Group_16">
<path id="Vector_10" d="M33.7107 8.49902C32.1796 8.49902 30.9384 9.74016 30.9384 11.2713V22.1327C30.9384 22.5294 30.9384 23.2676 29.4859 23.9991C29.0838 24.2016 28.6407 24.3 28.1317 24.3C28.1299 24.3 28.1281 24.3 28.1265 24.3C27.5853 24.2994 27.1197 24.1696 26.7026 23.903C25.5938 23.1947 25.5035 22.6874 25.5035 22.1441V11.2713C25.5035 9.74016 24.2623 8.49902 22.7312 8.49902C21.2001 8.49902 19.959 9.74016 19.959 11.2713V22.1443C19.959 24.8184 21.2236 26.9823 23.7175 28.5756C25.0323 29.4155 26.5131 29.8426 28.1192 29.8448H28.1317C29.5079 29.8448 30.8027 29.5442 31.98 28.9513C34.884 27.489 36.4834 25.0673 36.4834 22.1329V11.2714C36.4829 9.74016 35.2418 8.49902 33.7107 8.49902Z" fill="#97D729"/>
</g>
<g id="Group_17">
<path id="Vector_11" d="M59.475 25.5081L54.237 18.6062L58.5929 12.8294C59.5147 11.6069 59.271 9.86859 58.0484 8.9468C56.8256 8.02454 55.0874 8.26874 54.1658 9.49128L50.7536 14.0165L47.3141 9.4844C46.3884 8.26483 44.6493 8.02657 43.4298 8.95195C42.21 9.87765 41.9718 11.6167 42.8973 12.8363L47.2846 18.6171L42.2943 25.2354C41.3725 26.458 41.6162 28.1962 42.8387 29.118C43.3385 29.495 43.9244 29.6769 44.5058 29.6769C45.3462 29.6769 46.1765 29.2963 46.7215 28.5736L50.768 23.207L55.0582 28.8601C55.6036 29.5786 56.4312 29.9566 57.2686 29.9566C57.8527 29.9566 58.4415 29.7727 58.9425 29.3925C60.1623 28.4667 60.4007 26.7276 59.475 25.5081Z" fill="#97D729"/>
</g>
</g>
<g id="Group_18">
<g id="Group_19">
<path id="Vector_12" d="M36.4835 11.2706V22.1323C36.4835 25.0678 34.8855 27.4893 31.9801 28.9507C30.8043 29.5441 29.5094 29.844 28.1322 29.844H28.1195C27.6133 29.8425 27.1198 29.8012 26.6406 29.7172C27.4562 29.5759 28.2338 29.3205 28.9653 28.9507C31.8706 27.4893 33.4686 25.0678 33.4686 22.1323V11.2706C33.4686 10.2948 32.9655 9.43782 32.2039 8.94443C32.6371 8.66196 33.1544 8.49854 33.7114 8.49854C35.2425 8.49854 36.4835 9.73936 36.4835 11.2706Z" fill="#8BC727"/>
</g>
<g id="Group_20">
<path id="Vector_13" d="M58.9433 29.3921C58.4419 29.773 57.8533 29.957 57.2692 29.957C56.7393 29.957 56.2125 29.8047 55.7602 29.5095C55.8173 29.473 55.8728 29.4335 55.9284 29.3921C57.1486 28.467 57.3867 26.7278 56.4617 25.5076L51.6563 19.1768C51.4004 18.8394 51.3996 18.3732 51.6545 18.0351L55.5794 12.8291C56.5013 11.6073 56.257 9.8681 55.0351 8.94616C54.9812 8.90647 54.9271 8.86835 54.8717 8.83351C55.8206 8.21779 57.0932 8.22419 58.0499 8.94616C59.2717 9.8681 59.5162 11.6072 58.5943 12.8291L54.2386 18.6067L59.4765 25.5076C60.4016 26.7278 60.1635 28.467 58.9433 29.3921Z" fill="#8BC727"/>
</g>
</g>
<g id="Group_21">
<g id="Group_22">
<path id="Vector_14" d="M60.0384 37.1341H19.9589C19.3117 37.1341 18.7871 36.6094 18.7871 35.9623C18.7871 35.3152 19.3117 34.7905 19.9589 34.7905H60.0384C60.6855 34.7905 61.2102 35.3152 61.2102 35.9623C61.2102 36.6094 60.6855 37.1341 60.0384 37.1341Z" fill="#96CCED"/>
</g>
<g id="Group_23">
<path id="Vector_15" d="M60.0384 41.9617H19.9589C19.3117 41.9617 18.7871 41.4371 18.7871 40.7899C18.7871 40.1428 19.3117 39.6182 19.9589 39.6182H60.0384C60.6855 39.6182 61.2102 40.1428 61.2102 40.7899C61.2102 41.4371 60.6855 41.9617 60.0384 41.9617Z" fill="#96CCED"/>
</g>
<g id="Group_24">
<path id="Vector_16" d="M60.0384 46.7893H19.9589C19.3117 46.7893 18.7871 46.2647 18.7871 45.6176C18.7871 44.9704 19.3117 44.4458 19.9589 44.4458H60.0384C60.6855 44.4458 61.2102 44.9704 61.2102 45.6176C61.2102 46.2647 60.6855 46.7893 60.0384 46.7893Z" fill="#96CCED"/>
</g>
</g>
</g>
</g>
<g id="Group_25">
<path id="Vector_17" d="M79.3805 54.0044V61.2736C79.3805 62.3367 78.5188 63.1984 77.4541 63.1984H2.54455C1.4798 63.1984 0.618164 62.3367 0.618164 61.2736V54.0044H79.3805Z" fill="#5A5A5A"/>
</g>
<g id="Group_26">
<path id="Vector_18" d="M79.3797 54.0049V61.274C79.3797 62.3372 78.518 63.1989 77.4533 63.1989H74.2812C75.3444 63.1989 76.2061 62.3372 76.2061 61.274V54.0049H79.3797Z" fill="#444444"/>
</g>
<g id="Group_27">
<path id="Vector_19" d="M42.3795 59.7732H37.619C36.9719 59.7732 36.4473 59.2486 36.4473 58.6014C36.4473 57.9543 36.9719 57.4297 37.619 57.4297H42.3795C43.0267 57.4297 43.5513 57.9543 43.5513 58.6014C43.5513 59.2486 43.0267 59.7732 42.3795 59.7732Z" fill="#333333"/>
</g>
</g>
</g>
</g>
</g>
</g>
</g>
</g>
<defs>
<filter id="filter0_d_0_1" x="-29" y="-33" width="378" height="308" filterUnits="userSpaceOnUse" color-interpolation-filters="sRGB">
<feFlood flood-opacity="0" result="BackgroundImageFix"/>
<feColorMatrix in="SourceAlpha" type="matrix" values="0 0 0 0 0 0 0 0 0 0 0 0 0 0 0 0 0 0 127 0" result="hardAlpha"/>
<feOffset dy="1"/>
<feGaussianBlur stdDeviation="2"/>
<feColorMatrix type="matrix" values="0 0 0 0 0 0 0 0 0 0 0 0 0 0 0 0 0 0 0.1 0"/>
<feBlend mode="normal" in2="BackgroundImageFix" result="effect1_dropShadow_0_1"/>
<feBlend mode="normal" in="SourceGraphic" in2="effect1_dropShadow_0_1" result="shape"/>
</filter>
<clipPath id="clip0_0_1">
<rect width="1440" height="7230" fill="white" transform="translate(-160 -1121)"/>
</clipPath>
<clipPath id="clip1_0_1">
<rect width="80" height="80" fill="white"/>
</clipPath>
</defs>
</svg>
