<svg width="12" height="13" viewBox="0 0 12 13" fill="none" xmlns="http://www.w3.org/2000/svg">
<rect width="12" height="13" fill="#F5F5F5"/>
<g clip-path="url(#clip0_0_1)">
<rect width="1440" height="7230" transform="translate(-394 -6166)" fill="white"/>
<rect x="-394" y="-611" width="1440" height="912" fill="#FFF7F4"/>
<g filter="url(#filter0_d_0_1)">
<rect x="-259" y="-333" width="370" height="544" rx="10" fill="white"/>
</g>
<path fill-rule="evenodd" clip-rule="evenodd" d="M3.08386 6.41625C3.08386 6.09425 3.34519 5.83292 3.66719 5.83292C3.98919 5.83292 4.25053 6.09425 4.25053 6.41625C4.25053 6.73825 3.98919 6.99959 3.66719 6.99959C3.34519 6.99959 3.08386 6.73825 3.08386 6.41625ZM6.00053 5.83292C5.67853 5.83292 5.41719 6.09425 5.41719 6.41625C5.41719 6.73825 5.67853 6.99959 6.00053 6.99959C6.32253 6.99959 6.58386 6.73825 6.58386 6.41625C6.58386 6.09425 6.32253 5.83292 6.00053 5.83292ZM8.33386 5.83292C8.01186 5.83292 7.75053 6.09425 7.75053 6.41625C7.75053 6.73825 8.01186 6.99959 8.33386 6.99959C8.65586 6.99959 8.91719 6.73825 8.91719 6.41625C8.91719 6.09425 8.65586 5.83292 8.33386 5.83292ZM10.6079 7.17161C10.3121 9.06977 8.78206 10.6442 6.88681 10.9994C5.97156 11.1721 5.03939 11.0735 4.19356 10.7154C3.95381 10.6139 3.70589 10.5625 3.46264 10.5625C3.35181 10.5625 3.24214 10.573 3.13423 10.5946L1.49389 10.9224L1.82231 9.27919C1.89114 8.93794 1.84914 8.57277 1.70156 8.22336C1.34339 7.37752 1.24539 6.44594 1.41748 5.53011C1.77273 3.63486 3.34656 2.10477 5.24531 1.80902C6.75614 1.57394 8.23373 2.04994 9.30006 3.11627C10.367 4.18319 10.8436 5.66136 10.6079 7.17161ZM10.1254 2.29144C8.79251 0.95911 6.94918 0.364693 5.06559 0.655777C2.68734 1.02678 0.715676 2.94244 0.270592 5.31486C0.0559256 6.45703 0.179592 7.62019 0.627009 8.67778C0.683592 8.81253 0.701092 8.93794 0.678926 9.05053L0.178426 11.5519C0.139926 11.7432 0.200009 11.9409 0.338259 12.0786C0.448509 12.1894 0.597259 12.2495 0.750676 12.2495C0.788592 12.2495 0.826509 12.246 0.865009 12.2384L3.36343 11.7385C3.50693 11.7111 3.64576 11.7514 3.73851 11.7899C4.79726 12.2373 5.96043 12.3604 7.10143 12.1463C9.47443 11.7012 11.3901 9.72953 11.7611 7.35128C12.0539 5.46886 11.4583 3.62436 10.1254 2.29144Z" fill="#373737"/>
<mask id="mask0_0_1" style="mask-type:luminance" maskUnits="userSpaceOnUse" x="0" y="0" width="12" height="13">
<path fill-rule="evenodd" clip-rule="evenodd" d="M3.08386 6.41625C3.08386 6.09425 3.34519 5.83292 3.66719 5.83292C3.98919 5.83292 4.25053 6.09425 4.25053 6.41625C4.25053 6.73825 3.98919 6.99959 3.66719 6.99959C3.34519 6.99959 3.08386 6.73825 3.08386 6.41625ZM6.00053 5.83292C5.67853 5.83292 5.41719 6.09425 5.41719 6.41625C5.41719 6.73825 5.67853 6.99959 6.00053 6.99959C6.32253 6.99959 6.58386 6.73825 6.58386 6.41625C6.58386 6.09425 6.32253 5.83292 6.00053 5.83292ZM8.33386 5.83292C8.01186 5.83292 7.75053 6.09425 7.75053 6.41625C7.75053 6.73825 8.01186 6.99959 8.33386 6.99959C8.65586 6.99959 8.91719 6.73825 8.91719 6.41625C8.91719 6.09425 8.65586 5.83292 8.33386 5.83292ZM10.6079 7.17161C10.3121 9.06977 8.78206 10.6442 6.88681 10.9994C5.97156 11.1721 5.03939 11.0735 4.19356 10.7154C3.95381 10.6139 3.70589 10.5625 3.46264 10.5625C3.35181 10.5625 3.24214 10.573 3.13423 10.5946L1.49389 10.9224L1.82231 9.27919C1.89114 8.93794 1.84914 8.57277 1.70156 8.22336C1.34339 7.37752 1.24539 6.44594 1.41748 5.53011C1.77273 3.63486 3.34656 2.10477 5.24531 1.80902C6.75614 1.57394 8.23373 2.04994 9.30006 3.11627C10.367 4.18319 10.8436 5.66136 10.6079 7.17161ZM10.1254 2.29144C8.79251 0.95911 6.94918 0.364693 5.06559 0.655777C2.68734 1.02678 0.715676 2.94244 0.270592 5.31486C0.0559256 6.45703 0.179592 7.62019 0.627009 8.67778C0.683592 8.81253 0.701092 8.93794 0.678926 9.05053L0.178426 11.5519C0.139926 11.7432 0.200009 11.9409 0.338259 12.0786C0.448509 12.1894 0.597259 12.2495 0.750676 12.2495C0.788592 12.2495 0.826509 12.246 0.865009 12.2384L3.36343 11.7385C3.50693 11.7111 3.64576 11.7514 3.73851 11.7899C4.79726 12.2373 5.96043 12.3604 7.10143 12.1463C9.47443 11.7012 11.3901 9.72953 11.7611 7.35128C12.0539 5.46886 11.4583 3.62436 10.1254 2.29144Z" fill="white"/>
</mask>
<g mask="url(#mask0_0_1)">
<rect x="-1" width="14" height="14" fill="#373737"/>
</g>
</g>
<defs>
<filter id="filter0_d_0_1" x="-263" y="-336" width="378" height="552" filterUnits="userSpaceOnUse" color-interpolation-filters="sRGB">
<feFlood flood-opacity="0" result="BackgroundImageFix"/>
<feColorMatrix in="SourceAlpha" type="matrix" values="0 0 0 0 0 0 0 0 0 0 0 0 0 0 0 0 0 0 127 0" result="hardAlpha"/>
<feOffset dy="1"/>
<feGaussianBlur stdDeviation="2"/>
<feColorMatrix type="matrix" values="0 0 0 0 0 0 0 0 0 0 0 0 0 0 0 0 0 0 0.1 0"/>
<feBlend mode="normal" in2="BackgroundImageFix" result="effect1_dropShadow_0_1"/>
<feBlend mode="normal" in="SourceGraphic" in2="effect1_dropShadow_0_1" result="shape"/>
</filter>
<clipPath id="clip0_0_1">
<rect width="1440" height="7230" fill="white" transform="translate(-394 -6166)"/>
</clipPath>
</defs>
</svg>
